<svg width="192" height="192" viewBox="0 0 192 192" fill="none" xmlns="http://www.w3.org/2000/svg">
  <rect width="192" height="192" rx="40" fill="#1E6B5E"/>
  <path d="M96 40C91.6 40 88 43.6 88 48C88 52.4 91.6 56 96 56C100.4 56 104 52.4 104 48C104 43.6 100.4 40 96 40ZM72 52C67.6 52 64 55.6 64 60C64 64.4 67.6 68 72 68C76.4 68 80 64.4 80 60C80 55.6 76.4 52 72 52ZM120 52C115.6 52 112 55.6 112 60C112 64.4 115.6 68 120 68C124.4 68 128 64.4 128 60C128 55.6 124.4 52 120 52ZM96 68C86 68 76.8 72.8 72 80V108C72 116.8 79.2 124 88 124H104C112.8 124 120 116.8 120 108V80C115.2 72.8 106 68 96 68ZM82 92C85.2 92 88 94.8 88 98C88 101.2 85.2 104 82 104C78.8 104 76 101.2 76 98C76 94.8 78.8 92 82 92ZM110 92C113.2 92 116 94.8 116 98C116 101.2 113.2 104 110 104C106.8 104 104 101.2 104 98C104 94.8 106.8 92 110 92ZM96 116C100.4 116 104 119.6 104 124H88C88 119.6 91.6 116 96 116Z" fill="white"/>
</svg>