<svg width="512" height="512" viewBox="0 0 512 512" fill="none" xmlns="http://www.w3.org/2000/svg">
  <rect width="512" height="512" rx="100" fill="#1E6B5E"/>
  <path d="M256 106.667C244.267 106.667 234.667 116.267 234.667 128C234.667 139.733 244.267 149.333 256 149.333C267.733 149.333 277.333 139.733 277.333 128C277.333 116.267 267.733 106.667 256 106.667ZM192 138.667C180.267 138.667 170.667 148.267 170.667 160C170.667 171.733 180.267 181.333 192 181.333C203.733 181.333 213.333 171.733 213.333 160C213.333 148.267 203.733 138.667 192 138.667ZM320 138.667C308.267 138.667 298.667 148.267 298.667 160C298.667 171.733 308.267 181.333 320 181.333C331.733 181.333 341.333 171.733 341.333 160C341.333 148.267 331.733 138.667 320 138.667ZM256 181.333C229.333 181.333 205.333 194.133 192 213.333V288C192 311.467 210.533 330.667 234.667 330.667H277.333C301.467 330.667 320 311.467 320 288V213.333C306.667 194.133 282.667 181.333 256 181.333ZM218.667 245.333C227.2 245.333 234.667 252.8 234.667 261.333C234.667 269.867 227.2 277.333 218.667 277.333C210.133 277.333 202.667 269.867 202.667 261.333C202.667 252.8 210.133 245.333 218.667 245.333ZM293.333 245.333C301.867 245.333 309.333 252.8 309.333 261.333C309.333 269.867 301.867 277.333 293.333 277.333C284.8 277.333 277.333 269.867 277.333 261.333C277.333 252.8 284.8 245.333 293.333 245.333ZM256 309.333C267.733 309.333 277.333 318.933 277.333 330.667H234.667C234.667 318.933 244.267 309.333 256 309.333Z" fill="white"/>
</svg>